<?xml version="1.0" encoding="UTF-8"?>
<svg id="Layer_1" data-name="Layer 1" xmlns="http://www.w3.org/2000/svg" viewBox="0 0 600 75.89">
  <defs>
    <style>
      .cls-1 {
        fill: #fff;
        stroke-width: 0px;
      }
    </style>
  </defs>
  <path class="cls-1" d="m0,3.81h22.76v52.72h36.35v18.13H0V3.81Z"/>
  <path class="cls-1" d="m117.85,26.31c5.46,4.84,8.18,11.89,8.18,21.16s-2.73,16.32-8.18,21.16c-5.46,4.84-12.96,7.26-22.5,7.26s-17.03-2.4-22.45-7.21c-5.42-4.8-8.13-11.88-8.13-21.21s2.71-16.41,8.13-21.21c5.42-4.8,12.9-7.21,22.45-7.21s17.04,2.42,22.5,7.26Zm-32.59,18.28v5.87c0,7.69,3.36,11.53,10.09,11.53s10.19-3.84,10.19-11.53v-5.87c0-7.76-3.4-11.64-10.19-11.64s-10.09,3.88-10.09,11.64Z"/>
  <path class="cls-1" d="m136.64,74.66V0h20.49v74.66h-20.49Z"/>
  <path class="cls-1" d="m217.37,23.22c5.22,2.78,7.83,7.29,7.83,13.54v21.21c0,1.16.27,2.13.83,2.88.55.75,1.37,1.13,2.47,1.13h3.7v11.84c-.21.14-.74.36-1.6.67s-2.07.62-3.65.93-3.4.46-5.46.46c-3.98,0-7.26-.6-9.83-1.8-2.57-1.2-4.34-2.87-5.3-4.99-2.61,2.06-5.53,3.71-8.75,4.94-3.23,1.23-7,1.85-11.33,1.85-12.77,0-19.15-5.08-19.15-15.24,0-5.29,1.42-9.32,4.27-12.1s6.95-4.68,12.31-5.72,12.36-1.55,21.01-1.55v-2.68c0-2.12-.74-3.74-2.22-4.84-1.47-1.1-3.38-1.65-5.72-1.65-2.13,0-3.96.38-5.51,1.13-1.54.76-2.32,1.96-2.32,3.61v.41h-20.18c-.07-.34-.1-.83-.1-1.44,0-5.15,2.46-9.23,7.36-12.26,4.91-3.02,11.93-4.53,21.06-4.53,8.3,0,15.07,1.39,20.28,4.17Zm-25.59,29.66c-2.78,1.27-4.17,2.97-4.17,5.1,0,3.43,2.33,5.15,7,5.15,2.68,0,5.03-.72,7.06-2.16,2.02-1.44,3.04-3.23,3.04-5.35v-4.63c-5.84,0-10.14.63-12.93,1.9Z"/>
  <path class="cls-1" d="m326.11,6.85c3.43,2.02,6.11,4.81,8.03,8.34,1.92,3.54,2.88,7.5,2.88,11.9v1.34c0,4.4-.96,8.38-2.88,11.95-1.92,3.57-4.6,6.37-8.03,8.39-3.44,2.03-7.35,3.04-11.74,3.04h-16.99v22.86h-22.76V3.81h39.75c4.39,0,8.3,1.01,11.74,3.04Zm-28.73,28.37h9.37c2.41,0,4.21-.62,5.41-1.85,1.2-1.24,1.8-2.92,1.8-5.04v-.83c0-2.2-.6-3.89-1.8-5.09-1.2-1.2-3-1.8-5.41-1.8h-9.37v14.62Z"/>
  <path class="cls-1" d="m395.76,26.05c5.25,4.67,7.88,11.81,7.88,21.42v3.5h-40.78c0,3.91.88,6.86,2.63,8.85s4.51,2.99,8.29,2.99c3.43,0,5.96-.72,7.57-2.16s2.42-3.36,2.42-5.77h19.87c0,6.59-2.51,11.74-7.52,15.45-5.01,3.7-12.32,5.56-21.93,5.56-10.09,0-17.92-2.35-23.48-7.06-5.56-4.7-8.34-11.82-8.34-21.36s2.71-16.41,8.13-21.21c5.42-4.8,12.9-7.21,22.45-7.21s17.56,2.33,22.81,7Zm-32.79,15.24h19.98c0-2.81-.81-5.04-2.42-6.69s-3.86-2.47-6.75-2.47c-6.45,0-10.06,3.05-10.81,9.16Z"/>
  <path class="cls-1" d="m450.8,19.52c1.24.38,1.85.6,1.85.67v17.2h-6.59c-4.26,0-7.33,1.1-9.22,3.3-1.89,2.2-2.83,5.46-2.83,9.78v24.2h-20.49V20.29h16.78l1.34,8.24c1.24-3.16,3.19-5.54,5.87-7.16s5.7-2.42,9.06-2.42c1.58,0,2.99.19,4.22.57Z"/>
  <path class="cls-1" d="m500.85,19.52c1.24.38,1.85.6,1.85.67v17.2h-6.59c-4.26,0-7.33,1.1-9.22,3.3-1.89,2.2-2.83,5.46-2.83,9.78v24.2h-20.49V20.29h16.78l1.34,8.24c1.24-3.16,3.19-5.54,5.87-7.16s5.7-2.42,9.06-2.42c1.58,0,2.99.19,4.22.57Z"/>
  <path class="cls-1" d="m510.01,13.9V0h20.49v13.9h-20.49Zm0,60.76V20.29h20.49v54.37h-20.49Z"/>
  <path class="cls-1" d="m595.27,24.3c3.16,3.5,4.73,8.55,4.73,15.14v35.22h-20.49v-32.75c0-2.33-.6-4.21-1.8-5.61-1.2-1.4-2.9-2.11-5.1-2.11-2.54,0-4.6.82-6.18,2.47-1.58,1.65-2.37,3.67-2.37,6.08v31.93h-20.49V20.29h16.78l1.34,8.24c2.13-2.88,4.92-5.18,8.39-6.9,3.47-1.71,7.12-2.57,10.97-2.57,6.31,0,11.05,1.75,14.21,5.25Z"/>
</svg>